# xmcd
#
# Track frame offsets: 
#        150
#        17280
#        32803
#        50407
#        66651
#        84794
#        104504
#        125237
#        138487
#        155624
#        170244
#        183773
#        199862
#        215242
#        233673
#
# Disc length: 3319 seconds
#
# Revision: 0
# Processed by: cddbd v1.5.2PL0 Copyright (c) Steve Scherf et al.
# Submitted via: ExactAudioCopy v1.0b3
#
DISCID=da0cf50f
DTITLE=Nashville Music Group - NMG RDS Volume 1 Disc 1
DYEAR=2012
DGENRE=Country
TTITLE0=Tracy Lawrence - Pills
TTITLE1=Dylan Taylor - Good at Loving You
TTITLE2=David Frizzell - Say Hello to Heaven
TTITLE3=Leah Durelle - I'm Coming Back as a Cowboy
TTITLE4=Julie Ingram - Thank God
TTITLE5=RockitCity Band ft. Chip Davis - God Save Us All
TTITLE6=Kassie Jordan - Timing
TTITLE7=Brenda Best - Amen Facebook Friend
TTITLE8=Larry Joe Cashen - Blue I'm So Blue
TTITLE9=Marty McIntosh - Looking For Reasons
TTITLE10=Jeff Olson - Spirit Wind
TTITLE11=Jeff Cook - She Went to Harvard
TTITLE12=3 Lanes Crossing - Honey, I Do
TTITLE13=Garrett Steele - The Suitcase
TTITLE14=Andrew Heller - Devil Woman
EXTD=
EXTT0=
EXTT1=
EXTT2=
EXTT3=
EXTT4=
EXTT5=
EXTT6=
EXTT7=
EXTT8=
EXTT9=
EXTT10=
EXTT11=
EXTT12=
EXTT13=
EXTT14=
PLAYORDER=
